<svg preserveAspectRatio="none" width="100%" height="100%" overflow="visible" style="display: block;" viewBox="0 0 19.2998 17.6303" fill="none" xmlns="http://www.w3.org/2000/svg">
<path id="Vector" fill-rule="evenodd" clip-rule="evenodd" d="M8.19043 0C12.7134 0.000232442 16.3799 3.66736 16.3799 8.19043C16.3798 9.82696 15.8973 11.3498 15.0703 12.6289L19.0605 16.3311C19.3636 16.6129 19.3811 17.0872 19.0996 17.3906C18.818 17.6938 18.3436 17.7118 18.04 17.4307L14.1406 13.8125C12.6477 15.392 10.5354 16.3798 8.19043 16.3799C3.66736 16.3799 0.000232438 12.7134 0 8.19043C0 3.66722 3.66722 0 8.19043 0ZM8.19043 1.5C4.49564 1.5 1.5 4.49564 1.5 8.19043C1.50023 11.885 4.49579 14.8799 8.19043 14.8799C11.8849 14.8797 14.8797 11.8849 14.8799 8.19043C14.8799 4.49579 11.885 1.50023 8.19043 1.5Z" fill="var(--fill-0, white)"/>
</svg>
