<svg width="15" height="15" viewBox="0 0 15 15" fill="none" xmlns="http://www.w3.org/2000/svg">
  <path d="M3.5368 13.2423C2.93318 13.2423 2.48475 13.0959 2.19168 12.8029C1.90302 12.5144 1.7586 12.0684 1.7586 11.4649V10.0613C1.7586 9.93879 1.71711 9.83608 1.63396 9.75296L0.643167 8.75607C0.21433 8.33201 0 7.91448 0 7.50347C0 7.09247 0.21433 6.67264 0.64299 6.24417L1.63378 5.24728C1.71694 5.16416 1.75843 5.06357 1.75843 4.94551V3.53533C1.75843 2.92756 1.90284 2.47932 2.1915 2.19079C2.48457 1.90226 2.933 1.7579 3.53662 1.7579H4.94089C5.06342 1.7579 5.16617 1.71643 5.24932 1.63331L6.24665 0.642954C6.67548 0.21448 7.0932 6.67645e-05 7.49997 6.67645e-05C7.91115 -0.00434503 8.32886 0.209892 8.75329 0.642777L9.75061 1.63314C9.83818 1.71626 9.94305 1.75773 10.0656 1.75773H11.4633C12.0713 1.75773 12.5198 1.9042 12.8084 2.19714C13.0971 2.49008 13.2415 2.93621 13.2415 3.53515V4.94534C13.2415 5.0634 13.2853 5.16399 13.3727 5.2471L14.3635 6.24399C14.7877 6.67247 14.9999 7.0923 14.9999 7.5033C15.0043 7.9143 14.7921 8.33183 14.3635 8.75607L13.3727 9.75296C13.2851 9.83608 13.2415 9.93879 13.2415 10.0613V11.4649C13.2415 12.0727 13.095 12.5209 12.8019 12.8095C12.5132 13.098 12.0671 13.2423 11.4633 13.2423H10.0656C9.94305 13.2423 9.838 13.284 9.75061 13.3669L8.75329 14.3638C8.32904 14.7879 7.91132 15 7.49997 15C7.0932 15.0044 6.67531 14.7923 6.24665 14.3638L5.24932 13.3669C5.16617 13.2838 5.06342 13.2423 4.94089 13.2423H3.5368Z" fill="#00BC6D"/>
  <path d="M5.97397 11.1629C6.89273 10.0126 7.26384 8.86074 7.42523 7.6708H7.57488C7.73628 8.86074 8.10739 10.0126 9.02614 11.1629H9.11667L10.6637 8.07808C8.86168 7.05865 8.13286 5.65595 7.61808 3.83658H7.38205C6.86727 5.65595 6.13843 7.05865 4.33643 8.07808L5.88344 11.1629H5.97397Z" fill="#FFFFFF"/>
</svg>
