<svg preserveAspectRatio="none" width="100%" height="100%" overflow="visible" style="display: block;" viewBox="0 0 85.3334 32" fill="none" xmlns="http://www.w3.org/2000/svg">
<g id="Vector">
<path d="M82.5262 2.44456L80.0786 0L77.6674 2.44456L80.0786 4.92591L82.5262 2.44456Z" fill="var(--fill-0, white)"/>
<path d="M80.3663 9.08579L77.4153 15.2159L81.4315 18.7011C79.7002 19.3168 78.1371 19.5172 76.9474 19.4848C74.9321 19.4119 73.4566 17.916 71.2249 14.486C69.4254 11.713 67.8779 10.4358 66.1141 10.4358C64.1344 10.4358 62.2273 12.3699 59.888 15.7632C58.1604 18.2806 56.7931 19.4487 55.2451 19.4487C53.8415 19.4487 52.69 18.5362 52.69 15.1068V0H52.3303L48.8752 4.2328L49.4512 16.8209C49.739 22.9871 51.5747 25.4685 54.8498 25.4685C56.9889 25.4685 58.5332 24.1761 59.5328 22.6872L67.0504 27.2193L70.5413 21.126H70.7214C72.053 24.4101 73.9245 25.5046 76.048 25.5046C77.6317 25.5046 79.323 25.2129 80.9787 24.7747C82.4185 20.0676 82.8864 17.696 82.8864 15.434C82.8864 13.3541 81.8787 10.9095 80.7272 9.08515H80.3676L80.3663 9.08579ZM60.7062 16.6731C61.4417 15.8386 62.2323 15.4829 63.0548 15.5076C65.1615 15.5076 67.4332 18.1944 69.2984 21.6028L60.7062 16.6731Z" fill="var(--fill-0, white)"/>
<path d="M32.6071 28.9308L30.1602 26.4172L27.3887 29.227L30.1602 32L32.6071 29.5187L35.0546 32L37.8261 29.227L35.0546 26.4172L32.6071 28.9308Z" fill="var(--fill-0, white)"/>
<path d="M5.2184 3.50305L7.66591 5.98439L10.4374 3.21135L7.66591 0.40153L5.21652 2.91712L2.73524 0.40153L0 3.21135L2.73524 6.02054L5.2184 3.50305Z" fill="var(--fill-0, white)"/>
<path d="M46.2119 4.30575L43.4404 1.49593L40.7052 4.30575L43.4404 7.11494L46.2119 4.30575Z" fill="var(--fill-0, white)"/>
<path d="M35.1984 6.27594L36.8904 4.15986L36.7822 3.83138L17.3834 10.472L15.7278 12.6248L15.7997 12.9533L35.1984 6.27594Z" fill="var(--fill-0, white)"/>
<path d="M43.8 8.79349L40.849 14.9236L44.8446 18.391C42.7624 19.0594 40.4068 19.4481 38.2576 19.4481C34.9107 19.4481 34.8025 18.098 34.8025 14.5951V13.0263H33.7229L32.4456 17.7436C27.5494 19.0042 22.6375 19.4849 18.8946 19.4849C13.3878 19.4849 11.9123 18.5362 11.9123 14.1944V4.88916H11.5527L8.2057 8.28238L8.23572 9.62863L6.94598 10.3262C2.62702 12.661 0.900065 14.3763 0.900065 17.9154C0.900065 21.1266 2.91537 22.6587 5.39916 22.6587C6.33488 22.6587 7.19867 22.5128 7.95426 22.1844L8.80491 19.6466C9.90013 23.8394 13.1101 25.5047 18.3198 25.5047C21.9551 25.5047 26.6693 24.9936 31.0246 23.8991L32.0685 20.6878H32.3199C32.6983 23.913 34.1401 25.4064 37.5752 25.4679C40.0947 25.5047 42.3258 25.1394 44.4136 24.4824C45.8535 19.9579 46.3214 17.696 46.3214 15.5064C46.3214 13.0618 45.3137 10.6534 44.1622 8.79285H43.8025L43.8 8.79349ZM5.39854 16.6383C3.88674 16.6383 3.02295 16.3827 3.02295 15.7993C3.02295 15.2521 3.56274 14.9236 5.07454 14.3034L8.31016 12.9527L8.38584 16.3466C8.38584 16.3726 8.38772 16.3979 8.38834 16.4233C7.51016 16.5641 6.4237 16.6383 5.39854 16.6383Z" fill="var(--fill-0, white)"/>
<path d="M80.0949 5.99632L77.6312 3.46615L74.8603 6.31211L77.6312 9.08579L80.0949 6.6203L82.5262 9.08579L85.3334 6.31211L82.5262 3.46615L80.0949 5.99632Z" fill="var(--fill-0, white)"/>
</g>
</svg>
