<svg preserveAspectRatio="none" width="100%" height="100%" overflow="visible" style="display: block;" viewBox="0 0 85.9998 32.2499" fill="none" xmlns="http://www.w3.org/2000/svg">
<g id="Vector">
<path d="M83.1707 2.46366L80.7041 0L78.274 2.46366L80.7041 4.96438L83.1707 2.46366Z" fill="var(--fill-0, white)"/>
<path d="M80.994 9.15675L78.0199 15.3347L82.0675 18.8471C80.3227 19.4677 78.7474 19.6696 77.5484 19.637C75.5174 19.5635 74.0303 18.0559 71.7812 14.5992C69.9676 11.8045 68.4081 10.5174 66.6304 10.5174C64.6353 10.5174 62.7133 12.4665 60.3558 15.8863C58.6147 18.4234 57.2367 19.6006 55.6766 19.6006C54.262 19.6006 53.1015 18.681 53.1015 15.2248V0H52.739L49.2569 4.26586L49.8375 16.9523C50.1274 23.1667 51.9776 25.6674 55.2782 25.6674C57.434 25.6674 58.9904 24.365 59.9977 22.8644L67.5741 27.4319L71.0922 21.291H71.2737C72.6158 24.6008 74.5019 25.7038 76.6419 25.7038C78.238 25.7038 79.9426 25.4098 81.6111 24.9682C83.0622 20.2243 83.5338 17.8342 83.5338 15.5546C83.5338 13.4584 82.5182 10.9947 81.3577 9.15611H80.9953L80.994 9.15675ZM61.1803 16.8033C61.9216 15.9623 62.7184 15.6038 63.5473 15.6287C65.6704 15.6287 67.9599 18.3365 69.8397 21.7716L61.1803 16.8033Z" fill="var(--fill-0, white)"/>
<path d="M32.8617 29.1568L30.3957 26.6235L27.6026 29.4552L30.3957 32.2499L32.8617 29.7492L35.3284 32.2499L38.1215 29.4552L35.3284 26.6235L32.8617 29.1568Z" fill="var(--fill-0, white)"/>
<path d="M5.25916 3.53041L7.72579 6.03113L10.5189 3.23643L7.72579 0.404666L5.25727 2.9399L2.7566 0.404666L0 3.23643L2.7566 6.06756L5.25916 3.53041Z" fill="var(--fill-0, white)"/>
<path d="M46.5728 4.33938L43.7797 1.50761L41.0231 4.33938L43.7797 7.17051L46.5728 4.33938Z" fill="var(--fill-0, white)"/>
<path d="M35.4733 6.32496L37.1785 4.19235L37.0694 3.8613L17.5192 10.5538L15.8506 12.7234L15.9231 13.0545L35.4733 6.32496Z" fill="var(--fill-0, white)"/>
<path d="M44.1421 8.86217L41.168 15.0402L45.1948 18.5347C43.0963 19.2082 40.7224 19.6 38.5564 19.6C35.1833 19.6 35.0743 18.2394 35.0743 14.7091V13.128H33.9863L32.6991 17.8822C27.7645 19.1526 22.8143 19.6371 19.0421 19.6371C13.4924 19.6371 12.0053 18.681 12.0053 14.3052V4.92735H11.6429L8.26979 8.34707L8.30005 9.70384L7.00023 10.4068C2.64754 12.7599 0.907095 14.4886 0.907095 18.0553C0.907095 21.2916 2.93814 22.8357 5.44133 22.8357C6.38436 22.8357 7.2549 22.6887 8.01638 22.3576L8.87368 19.8C9.97746 24.0256 13.2125 25.7039 18.4628 25.7039C22.1265 25.7039 26.8776 25.1888 31.2669 24.0857L32.3189 20.8494H32.5723C32.9537 24.0998 34.4067 25.6048 37.8687 25.6668C40.4078 25.7039 42.6563 25.3357 44.7605 24.6737C46.2116 20.1138 46.6831 17.8342 46.6831 15.6275C46.6831 13.1638 45.6676 10.7366 44.5071 8.86153H44.1446L44.1421 8.86217ZM5.4407 16.7682C3.9171 16.7682 3.04656 16.5107 3.04656 15.9227C3.04656 15.3712 3.59057 15.0402 5.11417 14.4151L8.37506 13.0539L8.45134 16.4743C8.45134 16.5005 8.45323 16.526 8.45386 16.5516C7.56882 16.6935 6.47387 16.7682 5.4407 16.7682Z" fill="var(--fill-0, white)"/>
<path d="M80.7205 6.04315L78.2375 3.49322L75.445 6.36141L78.2375 9.15675L80.7205 6.672L83.1707 9.15675L85.9998 6.36141L83.1707 3.49322L80.7205 6.04315Z" fill="var(--fill-0, white)"/>
</g>
</svg>
