<svg preserveAspectRatio="none" width="100%" height="100%" overflow="visible" style="display: block;" viewBox="0 0 74.6667 28" fill="none" xmlns="http://www.w3.org/2000/svg">
<g id="Vector">
<path d="M72.2104 2.13899L70.0688 0L67.959 2.13899L70.0688 4.31017L72.2104 2.13899Z" fill="var(--fill-0, white)"/>
<path d="M70.3205 7.95006L67.7384 13.3139L71.2526 16.3634C69.7377 16.9022 68.37 17.0775 67.329 17.0492C65.5656 16.9854 64.2745 15.6765 62.3218 12.6753C60.7472 10.2489 59.3932 9.13136 57.8498 9.13136C56.1176 9.13136 54.4489 10.8237 52.402 13.7928C50.8904 15.9956 49.694 17.0176 48.3394 17.0176C47.1113 17.0176 46.1037 16.2192 46.1037 13.2185V0H45.789L42.7658 3.7037L43.2698 14.7183C43.5216 20.1137 45.1279 22.2849 47.9935 22.2849C49.8653 22.2849 51.2166 21.1541 52.0912 19.8513L58.6691 23.8169L61.7236 18.4852H61.8812C63.0464 21.3589 64.6839 22.3166 66.542 22.3166C67.9278 22.3166 69.4076 22.0613 70.8563 21.6779C72.1162 17.5592 72.5256 15.484 72.5256 13.5048C72.5256 11.6848 71.6439 9.54585 70.6363 7.94951H70.3216L70.3205 7.95006ZM53.1179 14.589C53.7615 13.8588 54.4533 13.5475 55.173 13.5692C57.0163 13.5692 59.0041 15.9201 60.6361 18.9025L53.1179 14.589Z" fill="var(--fill-0, white)"/>
<path d="M28.5312 25.3145L26.3902 23.115L23.9651 25.5736L26.3902 28L28.5312 25.8288L30.6728 28L33.0978 25.5736L30.6728 23.115L28.5312 25.3145Z" fill="var(--fill-0, white)"/>
<path d="M4.5661 3.06517L6.70767 5.23634L9.13275 2.80993L6.70767 0.351339L4.56446 2.55248L2.39333 0.351339L0 2.80993L2.39333 5.26797L4.5661 3.06517Z" fill="var(--fill-0, white)"/>
<path d="M40.4354 3.76753L38.0103 1.30894L35.617 3.76753L38.0103 6.22557L40.4354 3.76753Z" fill="var(--fill-0, white)"/>
<path d="M30.7986 5.49145L32.2791 3.63988L32.1844 3.35246L15.2105 9.16297L13.7618 11.0467L13.8247 11.3341L30.7986 5.49145Z" fill="var(--fill-0, white)"/>
<path d="M38.325 7.6943L35.7429 13.0582L39.239 16.0921C37.4171 16.677 35.3559 17.0171 33.4754 17.0171C30.5468 17.0171 30.4522 15.8358 30.4522 12.7707V11.398H29.5075L28.3899 15.5256C24.1057 16.6287 19.8078 17.0493 16.5327 17.0493C11.7143 17.0493 10.4233 16.2192 10.4233 12.4201V4.27802H10.1086L7.17999 7.24708L7.20626 8.42505L6.07773 9.0354C2.29864 11.0784 0.787557 12.5793 0.787557 15.676C0.787557 18.4858 2.55095 19.8264 4.72427 19.8264C5.54302 19.8264 6.29884 19.6987 6.95997 19.4113L7.7043 17.1908C8.66262 20.8595 11.4713 22.3166 16.0298 22.3166C19.2107 22.3166 23.3357 21.8694 27.1465 20.9117L28.0599 18.1018H28.2799C28.611 20.9239 29.8726 22.2306 32.8783 22.2844C35.0828 22.3166 37.035 21.997 38.8619 21.4221C40.1218 17.4632 40.5312 15.484 40.5312 13.5681C40.5312 11.4291 39.6495 9.32171 38.6419 7.69375H38.3272L38.325 7.6943ZM4.72372 14.5585C3.4009 14.5585 2.64508 14.3349 2.64508 13.8244C2.64508 13.3456 3.1174 13.0582 4.44022 12.5155L7.27139 11.3336L7.33761 14.3033C7.33761 14.326 7.33925 14.3482 7.3398 14.3704C6.57139 14.4936 5.62074 14.5585 4.72372 14.5585Z" fill="var(--fill-0, white)"/>
<path d="M70.0831 5.24678L67.9273 3.03288L65.5027 5.5231L67.9273 7.95006L70.0831 5.79276L72.2104 7.95006L74.6667 5.5231L72.2104 3.03288L70.0831 5.24678Z" fill="var(--fill-0, white)"/>
</g>
</svg>
