<svg preserveAspectRatio="none" width="100%" height="100%" overflow="visible" style="display: block;" viewBox="0 0 258.938 71.7705" fill="none" xmlns="http://www.w3.org/2000/svg">
<g id="Plan Price">
<path id="Vector" d="M254.121 29.7105H255.321C259.281 35.1705 259.941 37.5105 257.541 45.5505L254.661 55.3305L239.661 51.4905C238.581 55.0305 234.801 56.2305 231.561 56.2305C227.721 56.2305 224.721 54.5505 222.621 52.3305L221.361 54.6705C219.441 55.9305 217.461 56.2305 215.421 56.2305V47.8305C215.421 45.8505 216.381 44.8905 218.361 44.8905C221.361 44.8905 222.201 44.7105 224.601 44.0505L228.561 37.4505L230.121 38.2905L227.361 43.3905C229.641 44.4705 232.881 45.1305 235.581 45.1305C237.621 45.1305 239.781 44.8305 241.581 43.8105L243.621 36.6105L245.361 37.0305L244.101 42.4905L256.701 45.3705C254.781 42.6105 253.041 41.2905 250.401 39.2505L254.121 29.7105ZM240.441 26.8305L235.941 31.3305L230.841 26.2305V25.4505L235.941 20.3505L240.441 24.8505L244.941 20.3505L249.981 25.3905C250.041 25.4505 250.041 26.2305 249.981 26.2905L244.941 31.3305L240.441 26.8305ZM245.241 16.4505L240.321 21.3705L235.341 16.3905V15.6105L240.321 10.6305L245.241 15.5505C245.301 15.6105 245.301 16.3905 245.241 16.4505Z" fill="var(--fill-0, white)"/>
<path id="Vector_2" d="M192.169 44.8905H192.469C193.129 44.8905 193.849 44.8905 194.509 44.8305L200.869 24.9705L202.369 24.1905C210.229 26.7105 212.509 28.9305 212.509 35.4705C212.509 38.5305 211.609 41.5905 210.049 44.4705C213.049 44.7105 216.649 44.8905 218.329 44.8905V53.2905C218.329 55.2105 217.309 56.2305 215.389 56.2305C215.689 63.0705 212.269 68.0505 205.549 68.0505C198.409 68.0505 195.049 62.6505 194.149 55.7505C192.589 56.0505 190.969 56.2305 189.229 56.2305V47.8305C189.229 45.9105 190.249 44.8905 192.169 44.8905ZM211.069 39.3105C211.069 37.6905 202.909 35.3505 199.489 34.3905L196.069 44.7105C205.249 43.9905 211.069 40.5105 211.069 39.3105ZM207.109 57.6705C210.589 57.6705 213.889 56.8305 214.609 56.4705C213.289 54.5505 210.709 53.0505 203.749 51.5505C201.949 52.8705 199.909 54.0105 197.629 54.7905C199.789 56.6505 203.209 57.6705 207.109 57.6705Z" fill="var(--fill-0, white)"/>
<path id="Vector_3" d="M175.924 43.5705L179.764 35.0505H180.964L184.564 41.7105C186.424 45.1305 187.984 44.8905 192.124 44.8905V53.2905C192.124 55.2705 191.104 56.2305 189.184 56.2305C186.844 56.2305 185.404 55.5105 183.664 53.4705C182.944 60.6705 180.484 66.3705 176.164 71.7705L163.324 64.9305V64.0305C173.044 62.4705 179.884 58.0305 182.764 53.2905L175.924 43.5705Z" fill="var(--fill-0, white)"/>
<path id="Vector_4" d="M125.49 50.8905C128.73 50.8905 130.47 50.7105 131.85 50.4105L135.75 43.2105C137.67 39.5505 140.85 34.3905 145.89 34.3905C152.07 34.3905 155.55 42.2505 153.09 49.8105L152.91 50.2905C152.19 52.3905 151.71 53.1105 150.27 55.9305C144.87 55.0305 140.91 54.0705 137.07 52.5105L132.63 50.7105L130.29 55.0905C129.15 55.7505 126.15 56.2305 122.55 56.2305V53.8305C122.55 51.9105 123.57 50.8905 125.49 50.8905ZM136.11 44.1705L134.91 46.1505C140.97 48.7905 147.27 50.5305 151.71 51.1905C151.65 42.8505 147.57 38.6505 143.49 38.6505C140.07 38.6505 137.67 41.5905 136.11 44.1705Z" fill="var(--fill-0, white)"/>
<path id="Vector_5" d="M93.8419 39.1905C91.1419 39.1905 87.1219 40.3305 86.8819 40.3305L86.7019 39.9705L87.7819 36.7305C89.1019 35.7705 91.2619 34.4505 94.2619 34.4505C101.942 34.4505 104.822 43.2105 117.542 43.2105H120.482L120.722 43.5705L119.102 47.6505H113.582C113.882 50.5305 115.622 50.8905 125.402 50.8905V53.2905C125.402 55.2105 124.382 56.2305 122.462 56.2305C114.782 56.2305 113.042 53.2305 112.802 47.6505H111.842C105.722 47.6505 104.942 48.0105 101.822 50.8305C96.2419 55.9905 89.2819 56.2305 83.7019 56.2305V53.8305C83.7019 51.9105 84.7219 50.8905 86.6419 50.8905H87.9619C96.0619 50.8905 102.602 48.8505 109.022 45.9105C103.562 43.3905 99.0619 39.1905 93.8419 39.1905ZM109.682 66.1305L106.262 69.5505L102.902 66.1305V65.6505L106.262 62.2305L109.682 65.6505V66.1305Z" fill="var(--fill-0, white)"/>
<path id="Vector_6" d="M83.64 56.2305C78.84 56.2305 76.56 52.6305 76.26 45.2505L75 16.8705L78.18 12.1305H78.78V45.6705C78.78 50.5905 82.62 50.8905 86.58 50.8905V53.2905C86.58 55.2105 85.56 56.2305 83.64 56.2305Z" fill="var(--fill-0, white)"/>
<path id="Vector_7" d="M6.62065 55.7505V50.7705H8.30065C13.6407 52.4505 22.5207 53.3505 32.3607 53.3505C42.2007 53.3505 53.0007 52.4505 62.1807 50.5305C64.2207 50.1105 66.0807 49.6905 67.3407 49.2105C67.1607 47.1105 65.0007 43.1505 62.4807 38.8305L64.2207 34.4505H64.8207L69.4407 42.1905L68.3607 44.8905C68.4807 46.6905 68.2407 48.5505 67.7007 50.2905L66.9807 52.5105C61.2807 57.4305 36.1407 58.7505 28.7607 58.7505C19.8807 58.7505 11.6007 57.9105 6.62065 55.7505ZM65.9607 24.4905L62.5407 27.9105L59.1807 24.4905V24.0105L62.5407 20.5905L65.9607 24.0105V24.4905Z" fill="var(--fill-0, white)"/>
<path id="Vector_8" d="M65.3696 7.05047L25.1096 16.2305L24.9296 15.9305L26.3696 14.6705C26.6696 14.3705 27.0296 14.2505 27.3896 14.1305L67.8296 4.53047L68.0096 4.83047L66.3896 6.51047C66.0896 6.81047 65.7896 6.99047 65.3696 7.05047Z" fill="var(--fill-0, white)"/>
<path id="Vector_9" d="M65.3694 2.52L25.1094 11.7L24.9294 11.4L26.3694 10.14C26.6694 9.84 27.0294 9.72 27.3894 9.6L67.8294 0L68.0094 0.3L66.3895 1.98C66.0895 2.28 65.7894 2.46 65.3694 2.52Z" fill="var(--fill-0, white)"/>
<path id="Vector_10" d="M3.78003 12.1305V45.0705C3.78003 48.5505 5.22003 49.8105 8.28003 50.7705V55.7505H6.60003C3.00003 54.1905 1.56003 51.6105 1.32003 46.0905L2.95639e-05 16.8705L3.18003 12.1305H3.78003Z" fill="var(--fill-0, white)"/>
</g>
</svg>
