<svg preserveAspectRatio="none" width="100%" height="100%" overflow="visible" style="display: block;" viewBox="0 0 16.2766 16.2766" fill="none" xmlns="http://www.w3.org/2000/svg">
<g id="Vector">
<path d="M3.8378 14.3693C3.18281 14.3693 2.69621 14.2104 2.3782 13.8925C2.06497 13.5794 1.90827 13.0955 1.90827 12.4406V10.9175C1.90827 10.7846 1.86325 10.6732 1.77302 10.583L0.697904 9.50126C0.232571 9.0411 0 8.58804 0 8.14206C0 7.69608 0.232571 7.24052 0.697712 6.77558L1.77282 5.69385C1.86306 5.60366 1.90808 5.49451 1.90808 5.3664V3.8362C1.90808 3.17671 2.06478 2.69032 2.37801 2.37724C2.69602 2.06415 3.18262 1.90751 3.83761 1.90751H5.36139C5.49434 1.90751 5.60583 1.86251 5.69607 1.77232L6.77827 0.697672C7.2436 0.232733 7.69686 7.24465e-05 8.13825 7.24465e-05C8.58443 -0.00471482 9.03769 0.227755 9.49823 0.697481L10.5804 1.77213C10.6755 1.86232 10.7892 1.90732 10.9222 1.90732H12.4389C13.0987 1.90732 13.5853 2.06625 13.8985 2.38413C14.2117 2.702 14.3684 3.18609 14.3684 3.83601V5.36621C14.3684 5.49432 14.4159 5.60347 14.5108 5.69366L15.5859 6.77539C16.0462 7.24033 16.2765 7.69588 16.2765 8.14187C16.2813 8.58785 16.051 9.04091 15.5859 9.50126L14.5108 10.583C14.4157 10.6732 14.3684 10.7846 14.3684 10.9175V12.4406C14.3684 13.1001 14.2094 13.5865 13.8914 13.8996C13.5782 14.2127 13.0941 14.3693 12.4389 14.3693H10.9222C10.7892 14.3693 10.6753 14.4145 10.5804 14.5045L9.49823 15.5862C9.03788 16.0464 8.58462 16.2766 8.13825 16.2766C7.69686 16.2814 7.24341 16.0512 6.77827 15.5862L5.69607 14.5045C5.60583 14.4143 5.49434 14.3693 5.36139 14.3693H3.8378Z" fill="#00BC6D"/>
<path d="M6.48239 12.1129C7.47934 10.8648 7.88202 9.61483 8.05716 8.32362H8.21954C8.39467 9.61483 8.79737 10.8648 9.79431 12.1129H9.89254L11.5712 8.76556C9.61585 7.65937 8.825 6.1373 8.26641 4.16309H8.01029C7.4517 6.1373 6.66084 7.65937 4.70548 8.76556L6.38415 12.1129H6.48239Z" fill="var(--fill-0, black)"/>
</g>
</svg>
